<?xml version="1.0" encoding="UTF-8"?>
<svg id="Capa_1" xmlns="http://www.w3.org/2000/svg" version="1.1" viewBox="0 0 895 628.11">
  <!-- Generator: Adobe Illustrator 29.4.0, SVG Export Plug-In . SVG Version: 2.1.0 Build 152)  -->
  <defs>
    <style>
      .st0 {
        fill: #00ed64;
      }
    </style>
  </defs>
  <path class="st0" d="M479.83,77.24c-16.35-19.4-30.42-39.09-33.3-43.19-.3-.3-.76-.3-1.06,0-2.88,4.09-16.95,23.79-33.3,43.19-140.31,178.95,22.1,299.72,22.1,299.72l1.36.91c1.21,18.64,4.24,45.46,4.24,45.46h12.11s3.03-26.67,4.24-45.46l1.36-1.06c.15.15,162.56-120.62,22.25-299.57ZM445.93,374.38s-7.27-6.21-9.23-9.39v-.3l8.78-194.86c0-.61.91-.61.91,0l8.78,194.86v.3c-1.97,3.18-9.23,9.39-9.23,9.39Z"/>
  <path class="st0" d="M85.5,547.7l-44.66-108.29-.1-.3H6v7.28h5.61c1.7,0,3.3.7,4.51,1.89,1.2,1.2,1.8,2.79,1.8,4.49l-1,108.99c0,3.39-2.8,6.18-6.21,6.28l-5.71.1v7.18h33.84v-7.18l-3.51-.1c-3.4-.1-6.21-2.89-6.21-6.28v-102.7l48.66,116.26c.7,1.7,2.3,2.79,4.1,2.79s3.4-1.1,4.11-2.79l47.56-113.67.7,100.11c0,3.49-2.8,6.28-6.31,6.38h-3.6v7.18h39.65v-7.18h-5.41c-3.4,0-6.21-2.89-6.31-6.28l-.3-108.99c0-3.49,2.8-6.28,6.21-6.38l5.81-.1v-7.28h-33.84l-44.66,108.59Z"/>
  <path class="st0" d="M396.87,566.25c-1.11-1.1-1.71-2.59-1.71-4.38v-53.38c0-10.16-3.01-18.13-9.03-23.8-5.92-5.68-14.15-8.57-24.39-8.57-14.36,0-25.7,5.78-33.63,17.13-.1.2-.4.3-.7.3s-.5-.2-.5-.5l-3.71-14.24h-6.22l-15.96,9.06v4.98h4.12c1.91,0,3.51.5,4.62,1.49,1.1,1,1.71,2.49,1.71,4.58v62.85c0,1.79-.6,3.29-1.71,4.38-1.11,1.1-2.61,1.69-4.42,1.69h-4.02v7.27h36.74v-7.27h-4.01c-1.81,0-3.31-.6-4.42-1.69-1.1-1.1-1.71-2.59-1.71-4.38v-41.63c0-5.28,1.2-10.56,3.41-15.74,2.31-5.08,5.72-9.36,10.24-12.65,4.52-3.29,9.94-4.88,16.16-4.88,7.03,0,12.35,2.19,15.66,6.57,3.31,4.38,5.02,10.06,5.02,16.83v51.39c0,1.79-.6,3.29-1.71,4.38-1.1,1.1-2.61,1.69-4.42,1.69h-4.02v7.27h36.74v-7.27h-4.02c-1.51.2-2.91-.4-4.12-1.49Z"/>
  <path class="st0" d="M732.55,447.32c-10.16-5.41-21.51-8.21-33.75-8.21h-47.79v7.31h4.68c1.79,0,3.39.7,4.98,2.3,1.49,1.5,2.29,3.2,2.29,5.01v107.76c0,1.8-.8,3.51-2.29,5.01-1.49,1.5-3.19,2.3-4.98,2.3h-4.68v7.31h47.79c12.25,0,23.6-2.8,33.75-8.21,10.15-5.41,18.42-13.42,24.39-23.63,5.97-10.22,9.06-22.53,9.06-36.55s-3.09-26.24-9.06-36.55c-6.07-10.41-14.24-18.43-24.39-23.83ZM746.78,507.51c0,12.82-2.29,23.63-6.77,32.35-4.48,8.71-10.46,15.22-17.82,19.43-7.37,4.21-15.53,6.31-24.29,6.31h-9.66c-1.79,0-3.38-.7-4.98-2.3-1.49-1.5-2.29-3.2-2.29-5.01v-101.65c0-1.8.7-3.4,2.29-5.01,1.49-1.5,3.19-2.3,4.98-2.3h9.66c8.76,0,16.93,2.1,24.29,6.31,7.37,4.21,13.34,10.72,17.82,19.43,4.48,8.71,6.77,19.63,6.77,32.45Z"/>
  <path class="st0" d="M878.97,514.82c-4.42-5.11-12.95-9.41-22.98-11.72,13.85-6.91,20.97-16.62,20.97-29.14,0-6.81-1.8-12.92-5.42-18.13-3.61-5.21-8.73-9.41-15.25-12.32-6.53-2.9-14.16-4.41-22.79-4.41h-54.1v7.31h4.32c1.81,0,3.41.7,5.02,2.3,1.51,1.5,2.31,3.21,2.31,5.01v107.76c0,1.8-.8,3.51-2.31,5.01-1.51,1.5-3.21,2.3-5.02,2.3h-4.72v7.31h58.72c8.93,0,17.26-1.5,24.79-4.51,7.53-3,13.55-7.41,17.87-13.22,4.41-5.81,6.62-12.92,6.62-21.13-.1-8.81-2.71-16.32-8.03-22.43ZM811.62,563.39c-1.51-1.5-2.31-3.2-2.31-5.01v-48.37h27.91c9.83,0,17.36,2.5,22.58,7.51,5.22,5.01,7.83,11.52,7.83,19.53,0,4.81-1.21,9.51-3.41,13.82-2.31,4.41-5.73,7.91-10.34,10.62-4.52,2.7-10.14,4.11-16.66,4.11h-20.58c-1.81.1-3.41-.7-5.02-2.2ZM809.41,499.7v-42.96c0-1.8.7-3.4,2.31-5.01,1.51-1.5,3.21-2.3,5.02-2.3h13.25c9.53,0,16.56,2.4,20.98,7.01,4.41,4.71,6.62,10.72,6.62,18.13s-2.11,13.72-6.22,18.33c-4.12,4.51-10.34,6.81-18.57,6.81h-23.39Z"/>
  <path class="st0" d="M257,482.5c-7.67-4.19-16.24-6.39-25.5-6.39s-17.93,2.1-25.5,6.39c-7.67,4.19-13.75,10.28-18.23,17.97-4.48,7.68-6.77,16.67-6.77,26.65s2.29,18.96,6.77,26.65c4.48,7.68,10.56,13.77,18.23,17.97,7.67,4.19,16.24,6.39,25.5,6.39s17.93-2.1,25.5-6.39c7.67-4.19,13.75-10.28,18.23-17.97,4.48-7.68,6.77-16.67,6.77-26.65s-2.29-18.96-6.77-26.65c-4.48-7.68-10.56-13.67-18.23-17.97ZM264.37,527.11c0,12.28-2.99,22.26-8.96,29.44-5.88,7.19-13.94,10.88-23.9,10.88s-18.03-3.69-23.9-10.88c-5.98-7.19-8.96-17.17-8.96-29.44s2.99-22.26,8.96-29.44c5.88-7.19,13.95-10.88,23.9-10.88s18.03,3.69,23.9,10.88c5.98,7.29,8.96,17.17,8.96,29.44Z"/>
  <path class="st0" d="M610,482.5c-7.67-4.19-16.24-6.39-25.5-6.39s-17.93,2.1-25.5,6.39c-7.67,4.19-13.75,10.28-18.23,17.97s-6.77,16.67-6.77,26.65,2.29,18.96,6.77,26.65,10.56,13.77,18.23,17.97c7.67,4.19,16.24,6.39,25.5,6.39s17.93-2.1,25.5-6.39c7.67-4.19,13.75-10.28,18.23-17.97s6.77-16.67,6.77-26.65-2.29-18.96-6.77-26.65-10.66-13.67-18.23-17.97ZM617.37,527.11c0,12.28-2.99,22.26-8.96,29.44-5.88,7.19-13.95,10.88-23.91,10.88s-18.03-3.69-23.91-10.88c-5.98-7.19-8.96-17.17-8.96-29.44s2.99-22.26,8.96-29.44c5.88-7.19,13.94-10.88,23.91-10.88s18.03,3.69,23.91,10.88c5.88,7.29,8.96,17.17,8.96,29.44Z"/>
  <path class="st0" d="M467.64,476.11c-8.03,0-15.35,1.7-21.97,5.11-6.62,3.41-11.84,8.02-15.55,13.94-3.71,5.82-5.62,12.33-5.62,19.25,0,6.22,1.4,11.93,4.31,17.04,2.81,4.91,6.62,9.02,11.44,12.43l-14.35,19.45c-1.81,2.41-2.01,5.61-.7,8.22,1.4,2.71,4.01,4.31,7.02,4.31h4.11c-4.01,2.71-7.22,5.91-9.43,9.73-2.61,4.31-3.91,8.82-3.91,13.43,0,8.62,3.81,15.74,11.34,21.06,7.42,5.31,17.86,8.02,31,8.02,9.13,0,17.86-1.5,25.78-4.41,8.03-2.91,14.55-7.22,19.36-12.83,4.92-5.62,7.42-12.43,7.42-20.25,0-8.22-3.01-14.04-10.03-19.65-6.02-4.71-15.45-7.22-27.18-7.22h-40.12c-.1,0-.2-.1-.2-.1,0,0-.1-.2,0-.3l10.43-14.04c2.81,1.3,5.42,2.11,7.72,2.61,2.41.5,5.12.7,8.12.7,8.43,0,16.05-1.7,22.67-5.11,6.62-3.41,11.94-8.02,15.75-13.94,3.81-5.82,5.72-12.33,5.72-19.25,0-7.42-3.61-20.96-13.44-27.87,0-.1.1-.1.1-.1l21.57,2.41v-9.93h-34.51c-5.42-1.81-11.03-2.71-16.85-2.71ZM479.68,538.78c-3.81,2.01-7.92,3.11-12.04,3.11-6.72,0-12.64-2.41-17.66-7.12-5.02-4.71-7.52-11.63-7.52-20.45s2.51-15.74,7.52-20.45c5.02-4.71,10.93-7.12,17.66-7.12,4.21,0,8.22,1,12.04,3.11,3.81,2.01,6.92,5.11,9.43,9.22,2.41,4.11,3.71,9.22,3.71,15.24s-1.2,11.23-3.71,15.24c-2.41,4.11-5.62,7.22-9.43,9.22ZM452.49,575.77h27.18c7.52,0,12.34,1.5,15.55,4.71,3.21,3.21,4.82,7.52,4.82,12.53,0,7.32-2.91,13.34-8.73,17.85-5.82,4.51-13.64,6.82-23.27,6.82-8.43,0-15.45-1.9-20.57-5.51-5.12-3.61-7.72-9.12-7.72-16.14,0-4.41,1.2-8.52,3.61-12.13,2.41-3.61,5.32-6.22,9.13-8.12Z"/>
</svg>